<?xml version="1.0" encoding="UTF-8" ?>
<!DOCTYPE svg PUBLIC "-//W3C//DTD SVG 1.1//EN" "http://www.w3.org/Graphics/SVG/1.1/DTD/svg11.dtd">
<svg width="53pt" height="47pt" viewBox="0 0 53 47" version="1.1" xmlns="http://www.w3.org/2000/svg">
<path fill="#ffffff" d=" M 0.00 0.00 L 23.39 0.00 C 20.49 1.18 17.78 2.77 14.94 4.08 C 10.93 5.86 6.48 6.10 2.30 7.28 C 2.30 7.62 2.30 8.31 2.29 8.65 C 4.57 9.37 7.04 8.87 9.40 9.01 C 9.43 14.67 9.42 20.33 9.40 26.00 C 6.26 25.93 3.12 25.97 0.00 26.31 L 0.00 0.00 Z" />
<path fill="#30b0d4" d=" M 23.39 0.00 L 28.64 0.00 C 33.54 1.04 37.44 4.61 42.40 5.49 C 45.38 6.47 48.82 6.11 51.46 7.98 C 49.24 9.76 46.21 8.76 43.60 9.01 C 43.58 14.67 43.58 20.33 43.60 25.99 C 46.73 26.00 49.88 25.86 53.00 26.26 L 53.00 26.37 C 50.82 28.08 48.91 30.09 46.92 32.01 C 43.99 32.00 41.06 32.01 38.14 31.99 C 36.11 30.02 34.11 28.02 32.13 26.00 C 35.29 25.98 38.45 26.11 41.59 25.85 C 41.47 20.25 41.54 14.65 41.54 9.04 C 36.88 8.96 32.21 9.00 27.54 9.01 C 27.52 19.75 27.53 30.50 27.54 41.24 C 31.73 42.66 36.04 43.74 40.21 45.22 C 40.28 45.66 40.41 46.55 40.47 47.00 L 11.07 47.00 C 11.30 46.55 11.77 45.66 12.00 45.21 C 16.40 43.62 21.01 42.68 25.46 41.22 C 25.47 30.48 25.48 19.75 25.45 9.01 C 20.79 9.01 16.12 8.95 11.45 9.06 C 11.47 14.67 11.51 20.28 11.42 25.89 C 14.57 26.05 17.72 26.01 20.87 26.00 C 18.89 28.02 16.89 30.02 14.85 31.99 C 11.91 32.01 8.98 32.01 6.04 32.00 C 3.95 30.35 2.41 27.63 0.00 26.62 L 0.00 26.31 C 3.12 25.97 6.26 25.93 9.40 26.00 C 9.42 20.33 9.43 14.67 9.40 9.01 C 7.04 8.87 4.57 9.37 2.29 8.65 C 2.30 8.31 2.30 7.62 2.30 7.28 C 6.48 6.10 10.93 5.86 14.94 4.08 C 17.78 2.77 20.49 1.18 23.39 0.00 Z" />
<path fill="#ffffff" d=" M 28.64 0.00 L 53.00 0.00 L 53.00 26.26 C 49.88 25.86 46.73 26.00 43.60 25.99 C 43.58 20.33 43.58 14.67 43.60 9.01 C 46.21 8.76 49.24 9.76 51.46 7.98 C 48.82 6.11 45.38 6.47 42.40 5.49 C 37.44 4.61 33.54 1.04 28.64 0.00 Z" />
<path fill="#ffffff" d=" M 13.43 6.77 C 17.80 5.65 21.30 2.04 25.97 2.00 C 31.05 1.56 34.91 5.41 39.50 6.85 C 30.82 7.05 22.10 7.19 13.43 6.77 Z" />
<path fill="#ffffff" d=" M 11.45 9.06 C 16.12 8.95 20.79 9.01 25.45 9.01 C 25.48 19.75 25.47 30.48 25.46 41.22 C 21.01 42.68 16.40 43.62 12.00 45.21 C 11.77 45.66 11.30 46.55 11.07 47.00 L 0.00 47.00 L 0.00 26.62 C 2.41 27.63 3.95 30.35 6.04 32.00 C 8.98 32.01 11.91 32.01 14.85 31.99 C 16.89 30.02 18.89 28.02 20.87 26.00 C 17.72 26.01 14.57 26.05 11.42 25.89 C 11.51 20.28 11.47 14.67 11.45 9.06 Z" />
<path fill="#ffffff" d=" M 27.54 9.01 C 32.21 9.00 36.88 8.96 41.54 9.04 C 41.54 14.65 41.47 20.25 41.59 25.85 C 38.45 26.11 35.29 25.98 32.13 26.00 C 34.11 28.02 36.11 30.02 38.14 31.99 C 41.06 32.01 43.99 32.00 46.92 32.01 C 48.91 30.09 50.82 28.08 53.00 26.37 L 53.00 47.00 L 40.47 47.00 C 40.41 46.55 40.28 45.66 40.21 45.22 C 36.04 43.74 31.73 42.66 27.54 41.24 C 27.53 30.50 27.52 19.75 27.54 9.01 Z" />
<path fill="#ffffff" d=" M 4.86 28.11 C 8.55 28.21 12.48 27.37 16.02 28.55 C 13.55 30.92 9.97 29.72 6.93 30.01 C 6.23 29.39 5.54 28.75 4.86 28.11 Z" />
<path fill="#ffffff" d=" M 36.94 28.09 C 40.68 27.95 44.43 27.94 48.17 28.11 C 47.47 28.75 46.77 29.39 46.06 30.02 C 43.70 29.99 41.35 30.00 39.00 29.99 C 38.31 29.36 37.63 28.73 36.94 28.09 Z" />
<path fill="#ffffff" d=" M 19.89 44.56 C 21.98 44.21 24.03 43.71 26.08 43.21 C 28.20 43.32 30.21 44.20 32.29 44.57 C 28.21 45.29 23.99 45.13 19.89 44.56 Z" />
</svg>
